<?xml version="1.0" encoding="UTF-8" standalone="no"?>
<!DOCTYPE svg PUBLIC "-//W3C//DTD SVG 1.1//EN"
 "http://www.w3.org/Graphics/SVG/1.1/DTD/svg11.dtd">
<!-- Generated by graphviz version 2.28.0 (20110507.0327)
 -->
<!-- Title: G Pages: 1 -->
<svg width="346pt" height="410pt"
 viewBox="0.00 0.00 346.00 410.00" xmlns="http://www.w3.org/2000/svg" xmlns:xlink="http://www.w3.org/1999/xlink">
<g id="graph1" class="graph" transform="scale(1 1) rotate(0) translate(4 406)">
<title>G</title>
<polygon fill="white" stroke="white" points="-4,5 -4,-406 343,-406 343,5 -4,5"/>
<g id="graph2" class="cluster"><title>cluster_Global</title>
<polyline fill="none" stroke="gray" points="20,-44 318,-44 "/>
<path fill="none" stroke="gray" d="M318,-44C324,-44 330,-50 330,-56"/>
<polyline fill="none" stroke="gray" points="330,-56 330,-382 "/>
<path fill="none" stroke="gray" d="M330,-382C330,-388 324,-394 318,-394"/>
<polyline fill="none" stroke="gray" points="318,-394 20,-394 "/>
<path fill="none" stroke="gray" d="M20,-394C14,-394 8,-388 8,-382"/>
<polyline fill="none" stroke="gray" points="8,-382 8,-56 "/>
<path fill="none" stroke="gray" d="M8,-56C8,-50 14,-44 20,-44"/>
<text text-anchor="middle" x="169" y="-381.2" font-family="Times New Roman,serif" font-size="11.00" fill="gray">Global</text>
</g>
<g id="graph3" class="cluster"><title>cluster_\LoginLib</title>
<polyline fill="none" stroke="gray" points="28,-132 310,-132 "/>
<path fill="none" stroke="gray" d="M310,-132C316,-132 322,-138 322,-144"/>
<polyline fill="none" stroke="gray" points="322,-144 322,-354 "/>
<path fill="none" stroke="gray" d="M322,-354C322,-360 316,-366 310,-366"/>
<polyline fill="none" stroke="gray" points="310,-366 28,-366 "/>
<path fill="none" stroke="gray" d="M28,-366C22,-366 16,-360 16,-354"/>
<polyline fill="none" stroke="gray" points="16,-354 16,-144 "/>
<path fill="none" stroke="gray" d="M16,-144C16,-138 22,-132 28,-132"/>
<text text-anchor="middle" x="169" y="-353.2" font-family="Times New Roman,serif" font-size="11.00" fill="gray">LoginLib</text>
</g>
<g id="graph4" class="cluster"><title>cluster_\MysqliDb</title>
<polyline fill="none" stroke="gray" points="223,-52 287,-52 "/>
<path fill="none" stroke="gray" d="M287,-52C293,-52 299,-58 299,-64"/>
<polyline fill="none" stroke="gray" points="299,-64 299,-112 "/>
<path fill="none" stroke="gray" d="M299,-112C299,-118 293,-124 287,-124"/>
<polyline fill="none" stroke="gray" points="287,-124 223,-124 "/>
<path fill="none" stroke="gray" d="M223,-124C217,-124 211,-118 211,-112"/>
<polyline fill="none" stroke="gray" points="211,-112 211,-64 "/>
<path fill="none" stroke="gray" d="M211,-64C211,-58 217,-52 223,-52"/>
<text text-anchor="middle" x="255" y="-111.2" font-family="Times New Roman,serif" font-size="11.00" fill="gray">MysqliDb</text>
</g>
<!-- \\LoginLib\\MethodResult -->
<g id="node3" class="node"><title>\\LoginLib\\MethodResult</title>
<polygon fill="none" stroke="black" points="123.5,-311 24.5,-311 24.5,-275 123.5,-275 123.5,-311"/>
<text text-anchor="start" x="40" y="-296.7" font-family="Courier,monospace" font-size="11.00">«abstract»</text>
<text text-anchor="start" x="33" y="-285.7" font-family="Courier,monospace" font-size="11.00">MethodResult</text>
</g>
<!-- \\LoginLib\\LoginResult -->
<g id="node4" class="node"><title>\\LoginLib\\LoginResult</title>
<polygon fill="none" stroke="black" points="300.5,-338 209.5,-338 209.5,-302 300.5,-302 300.5,-338"/>
<text text-anchor="middle" x="255" y="-317.2" font-family="Courier,monospace" font-size="11.00">LoginResult</text>
</g>
<!-- \\LoginLib\\LoginResult&#45;&gt;\\LoginLib\\MethodResult -->
<g id="edge5" class="edge"><title>\\LoginLib\\LoginResult&#45;&gt;\\LoginLib\\MethodResult</title>
<path fill="none" stroke="black" d="M209.292,-313.256C186.357,-309.797 158.135,-305.54 133.491,-301.823"/>
<polygon fill="none" stroke="black" points="133.942,-298.351 123.532,-300.32 132.898,-305.273 133.942,-298.351"/>
</g>
<!-- \\LoginLib\\RegisterResult -->
<g id="node5" class="node"><title>\\LoginLib\\RegisterResult</title>
<polygon fill="none" stroke="black" points="310.5,-284 199.5,-284 199.5,-248 310.5,-248 310.5,-284"/>
<text text-anchor="middle" x="255" y="-263.2" font-family="Courier,monospace" font-size="11.00">RegisterResult</text>
</g>
<!-- \\LoginLib\\RegisterResult&#45;&gt;\\LoginLib\\MethodResult -->
<g id="edge7" class="edge"><title>\\LoginLib\\RegisterResult&#45;&gt;\\LoginLib\\MethodResult</title>
<path fill="none" stroke="black" d="M199.321,-274.248C178.558,-277.38 154.832,-280.958 133.711,-284.144"/>
<polygon fill="none" stroke="black" points="132.943,-280.72 123.576,-285.673 133.987,-287.642 132.943,-280.72"/>
</g>
<!-- \\LoginLib\\LoginLib -->
<g id="node6" class="node"><title>\\LoginLib\\LoginLib</title>
<polygon fill="none" stroke="black" points="290.5,-230 219.5,-230 219.5,-194 290.5,-194 290.5,-230"/>
<text text-anchor="middle" x="255" y="-209.2" font-family="Courier,monospace" font-size="11.00">LoginLib</text>
</g>
<!-- \\LoginLib\\MethodException -->
<g id="node7" class="node"><title>\\LoginLib\\MethodException</title>
<polygon fill="none" stroke="black" points="314,-176 196,-176 196,-140 314,-140 314,-176"/>
<text text-anchor="middle" x="255" y="-155.2" font-family="Courier,monospace" font-size="11.00">MethodException</text>
</g>
<!-- \\Exception -->
<g id="node13" class="node"><title>\\Exception</title>
<ellipse fill="none" stroke="black" cx="74" cy="-18" rx="50.0912" ry="18"/>
<text text-anchor="middle" x="74" y="-14.3" font-family="Times New Roman,serif" font-size="14.00" fill="gray">\Exception</text>
</g>
<!-- \\LoginLib\\MethodException&#45;&gt;\\Exception -->
<g id="edge9" class="edge"><title>\\LoginLib\\MethodException&#45;&gt;\\Exception</title>
<path fill="none" stroke="black" d="M215.422,-139.845C208.767,-136.211 202.05,-132.207 196,-128 158.982,-102.261 121.327,-66.1234 98.0707,-42.3949"/>
<polygon fill="none" stroke="black" points="100.521,-39.8944 91.0452,-35.1558 95.498,-44.7695 100.521,-39.8944"/>
</g>
<!-- \\MysqliDb\\MysqliDb -->
<g id="node9" class="node"><title>\\MysqliDb\\MysqliDb</title>
<polygon fill="none" stroke="black" points="290.5,-96 219.5,-96 219.5,-60 290.5,-60 290.5,-96"/>
<text text-anchor="middle" x="255" y="-75.2" font-family="Courier,monospace" font-size="11.00">MysqliDb</text>
</g>
</g>
</svg>
